<svg xmlns="http://www.w3.org/2000/svg" version="1.0" viewBox="0 0 225 225"><path d="M93.8 39.3c-14.1 6-24.8 18.4-29.3 34.1-2.2 7.6-1.6 22.9 1 29.6 3.1 7.7 9.4 16.8 15.2 21.9 4.8 4.3 15.7 11.1 17.8 11.1.4 0-.9-1.8-2.8-3.9-8.6-9.5-7.1-25.2 3.4-36.6 6.7-7.3 11.8-9.8 21-10.3 9.5-.6 15.8 1 20.1 4.9 1.6 1.6 3.2 2.9 3.3 2.9.2 0 1.2-2.4 2.2-5.3 1.2-3.4 1.8-8.1 1.8-13.7 0-7.6-.4-9.3-3.2-15.1-4-8.2-10.2-14-19.1-18.2-5.8-2.7-8-3.2-16.2-3.5-8.2-.2-10.3.1-15.2 2.1z"/><path d="M162.4 63c.8 1.9 1.7 6.1 2.1 9.2 1.5 11.8-4.4 23.4-21 41.8-13.6 15.1-27.6 32.2-32.3 39.4-5.9 9-10.2 21.2-10.2 28.8v5.8h11.3c19.9 0 36.1-6.1 49.8-18.8 16.6-15.3 24.8-35.5 23.6-58.1-.9-17.9-7.2-33.3-18.8-45.4-5.5-5.8-5.8-6-4.5-2.7zM55.7 68c-1.4 1.6-4.1 5.5-6 8.7-22.1 36.4-8.2 84.9 29.8 103.9l7 3.5.7-6.1c.9-7.6 3-14.5 7.4-23.3 1.9-3.7 3.4-7 3.4-7.2 0-.2-3.2-2-7.1-4-16.7-8.4-28.6-19.4-34.6-32.1-3.2-6.7-3.8-9-4.1-16.3-.4-9 1-16.8 4.8-25.6 1.1-2.5 1.8-4.5 1.6-4.5-.3 0-1.5 1.3-2.9 3z"/></svg>