<svg version="1.0" xmlns="http://www.w3.org/2000/svg" width="2746.667" height="945.333" viewBox="0 0 2060 709"><path d="M22 237.2c0 140 .4 221.2 1 230.3 6.2 82.8 39.1 146.1 95.3 183.6 32.8 21.8 72.4 34 116 35.6l14.7.6v-65.9l-13.7-1.2c-27.2-2.4-50.9-10.2-73.8-24.4-10.6-6.6-26.2-19.5-32.3-26.7-15.4-18.2-26.6-40.8-33.1-67.3-6.8-27.2-6.5-19.9-6.8-154.6L88.9 225H249v-67H89V21H22v216.2zM1296 242.5c0 192.6.2 223.5 1.5 236.2 11.1 105.1 68.1 177.3 158.5 200.6 18 4.7 40.2 7.7 57.3 7.7h9.7V621.3l-10.7-.7c-22.9-1.5-42-6.7-63.8-17.6-49.4-24.5-74.5-63.2-84.6-130.5-.9-5.8-1.3-41.4-1.6-127.7l-.4-119.8 80.3-.2 80.3-.3.3-33.3.2-33.2h-161V21h-66v221.5zM983.2 158c-48.3 3.2-89.2 17.2-122.2 41.9-9.3 6.9-26.3 23.3-34.1 32.7-25.6 31.3-42.1 70.9-50.1 120.9l-2.2 14-.3 159.7-.4 159.8h66l.4-153.7c.3-151.3.3-154 2.4-166.8 4-24.6 9.8-43.6 18.5-61 7.6-15.1 14-23.9 25.7-35.5 21.8-21.7 48.9-35.9 81-42.7 11.1-2.4 14.9-2.7 32.1-2.7 14.3 0 22 .5 28.7 1.7 33.3 6.3 62.8 21.1 85.2 43 23.6 23 37.4 53.5 44.9 99.2 1.4 8.9 1.6 27 1.9 164.3l.4 154.2 33.2-.2 33.2-.3V535c0-159.6-.1-161.9-4.6-189-18-107.1-87.2-175.1-189.6-186.4-17.6-2-35.5-2.5-50.1-1.6zM523.5 158.7c-10.7.6-29.7 3.3-41.3 5.9-39.2 8.8-71.4 25.8-98.1 51.8-37.2 36.3-57.2 79.4-66.8 143.6-1.5 10.4-1.7 26.6-2 169.8l-.4 158.2h66l.4-152.2c.4-161.3.3-158.1 5.3-182.8 7.2-35 20.6-61.5 41.8-82.6 26.8-26.6 64.1-43.1 101.9-45.1l11.7-.6V158l-6.2.2c-3.5.1-9 .3-12.3.5zM625 423v265h66V158h-66v265zM1796.7 159c-106.5 8.3-177.7 71-200.1 176.1-5.6 26.3-6.1 33.3-6.1 88.4 0 54.3.3 58.4 5.6 85.5 12.7 63.7 46.4 115.4 95.1 145.6 26.2 16.2 59.9 27.3 95.8 31.5 15.3 1.8 49.8 1.5 65.5-.5 27.2-3.5 53.9-11.2 75-21.6 68.2-33.6 109.5-101.1 117.5-192 1.3-15 1.3-84.2 0-99-5.6-61.8-27.1-113.8-62.5-150.8-32.5-34.1-75.5-54.7-128.5-61.6-14.5-1.9-43.2-2.7-57.3-1.6zm53.7 69c27.2 5.4 51.5 16.9 74 35 28.7 23.2 47.5 62.9 53.2 112.6 2.2 19 1.5 87.6-1 103.4-5.1 31.3-14 55.9-28.2 77.2-22.4 33.7-65.8 58.5-111.6 63.8-13.2 1.6-36.8.8-48.8-1.5-31.3-6-58.8-19.6-82-40.3-17.7-15.9-33.9-44.8-41.5-73.9-6.1-23.2-6.8-30.5-7.2-74.4-.5-44.8.3-57.5 5.3-79.8 3.7-16.6 7.5-27.7 14.8-42.6 14.3-29.3 34.9-49.5 66.1-65 15.3-7.5 27.3-11.6 42.2-14.4 15.4-2.9 15.9-2.9 35.8-2.6 13.5.2 20.7.8 28.9 2.5z"/></svg>