<svg xmlns="http://www.w3.org/2000/svg" width="4096" height="4096"><rect width="3410.932" height="2170.593" rx="124.034" x="342.534" y="962.703" fill="#f9f9f9" stroke-width="62.017"/><path d="M764.745 1333.937h29.21v775.584h-29.21zm58.42 0h29.21v775.584h-29.21zm175.384 0h29.21v775.584h-29.21zm568.572 0h29.21v775.584h-29.21zm190.081 0h29.21v775.584h-29.21zm184.315 0h29.21v775.584h-29.21zm47.505 0h29.21v775.584h-29.21zm47.567 0h29.21v775.584h-29.21zm53.458 0h29.21v775.584h-29.21zm53.46 0h29.21v775.584h-29.21zm148.592 0h29.21v775.584h-29.21zm368.442 0h29.21v775.584h-29.21zm384.32 0h29.21v775.584h-29.21zm105.118 0h29.21v775.584h-29.21zm75.97 0h29.21v775.584h-29.21zm46.762 0h29.21v775.584h-29.21zm-2081.29 0h29.21v775.584h-29.21zm-292.285 0h52.59v775.584h-52.59zm347.109 0h52.59v775.584h-52.59zm243.726 0h52.59v775.584h-52.59zm124.779 0h52.59v775.584h-52.59zm196.097 0h52.59v775.584h-52.59zm559.083 0h81.8v775.584h-81.8zm106.855 0h64.312v775.584h-64.312zm112.747 0h52.59v775.584h-52.59zm149.089 0h87.692v775.584h-87.692zm171.725 0h87.692v775.584h-87.692zm-1853.377 0h105.18v775.584h-105.18zm272.627 0h81.8v775.584h-81.8z" fill="#010101" stroke-width="62.017"/><path d="M802.576 2798.157V2354.24h166.577a206.144 206.144 0 0181.614 13.457 104.933 104.933 0 0148.126 41.49 109.336 109.336 0 0117.426 58.606 100.654 100.654 0 01-15.442 53.582 110.266 110.266 0 01-46.637 40.56 115.972 115.972 0 0162.017 40.248 107.847 107.847 0 0121.644 67.227 129.677 129.677 0 01-13.147 57.986 112.25 112.25 0 01-32.683 41.365 135.88 135.88 0 01-48.621 21.954 295.573 295.573 0 01-71.568 7.442zm58.792-257.37h96.002a214.207 214.207 0 0055.815-5.148 62.017 62.017 0 0033.737-22.078 63.691 63.691 0 0011.35-38.76 71.382 71.382 0 00-10.605-38.885 53.645 53.645 0 00-30.017-23.07 252.905 252.905 0 00-67.536-6.202h-88.746zm0 205.028h110.514a254.27 254.27 0 0040-2.109 95.754 95.754 0 0033.924-12.403 64.312 64.312 0 0022.388-24.807 77.273 77.273 0 008.807-37.21 73.738 73.738 0 00-12.714-43.412 67.102 67.102 0 00-35.288-25.737 218.734 218.734 0 00-64.931-7.442h-102.7zm362.365-163.85a241.246 241.246 0 0159.35-173.088 201.803 201.803 0 01153.244-62.514 212.594 212.594 0 01110.824 29.397 191.818 191.818 0 0175.227 81.924 266.053 266.053 0 0125.86 119.134 261.587 261.587 0 01-27.225 120.81 186.05 186.05 0 01-77.21 80.622 220.594 220.594 0 01-107.786 27.411 209.927 209.927 0 01-112.003-30.202 194.857 194.857 0 01-74.854-82.73 250.548 250.548 0 01-25.427-110.763zm60.59.931a177.865 177.865 0 0043.412 126.453 141.957 141.957 0 00108.282 46.202 141.709 141.709 0 00108.778-46.698 188.532 188.532 0 0042.853-132.345 227.416 227.416 0 00-18.047-94.637 140.778 140.778 0 00-53.582-62.7 145.306 145.306 0 00-79.196-22.264 150.205 150.205 0 00-107.351 42.854 191.384 191.384 0 00-45.149 143.073zm460.228 215.261V2354.24h58.73v391.513h218.61v52.404zm371.482 0V2354.24h321v52.404h-262.27v135.941h245.587v52.094h-245.587v151.074h272.564v52.404zm548.354 0v-391.513h-146.299v-52.404h351.885v52.404h-146.856v391.513zm259.726-216.191a241.246 241.246 0 0159.475-173.09 201.803 201.803 0 01153.244-62.513 212.594 212.594 0 01110.824 29.397 191.818 191.818 0 0175.226 81.924 266.053 266.053 0 0125.861 119.134 261.587 261.587 0 01-27.225 120.81 186.05 186.05 0 01-77.46 80.684 220.594 220.594 0 01-107.785 27.411 209.927 209.927 0 01-112.064-30.264 194.857 194.857 0 01-74.669-82.73 250.548 250.548 0 01-25.427-110.763zm60.591.93a177.865 177.865 0 0043.412 126.453 141.957 141.957 0 00108.282 46.202 141.709 141.709 0 00109.15-46.636 188.532 188.532 0 0042.853-132.345 227.416 227.416 0 00-18.605-94.637 140.778 140.778 0 00-53.583-62.7 145.306 145.306 0 00-79.195-22.264 150.205 150.205 0 00-107.352 42.854 191.384 191.384 0 00-45.024 143.011z" stroke-width="62.017"/></svg>